# xmcd
#
# Track frame offsets: 
#        150
#        23908
#        44246
#        90942
#        105247
#        145043
#        169921
#        213820
#        233026
#        254777
#        281886
#
# Disc length: 4145 seconds
#
# Revision: 4
# Processed by: cddbd v1.5.2PL0 Copyright (c) Steve Scherf et al.
# Submitted via: ExactAudioCopyFreeDBPlugin 1.0
#
DISCID=98102f0b
DTITLE=Simon Nabatov - Around Brazil
DYEAR=2006
DGENRE=Jazz
TTITLE0=Desde que o samba é samba
TTITLE1=Estrada do Sol
TTITLE2=Partita de Março
TTITLE3=Nenê
TTITLE4=Eu vim da Bahia
TTITLE5=Depois que o llê passar
TTITLE6=Na Baxia do Sapateiro
TTITLE7=My Sertão
TTITLE8=Valsa de Pôrto Das Caixas
TTITLE9=Qualquer coisa
TTITLE10=Você é linda
EXTD=YEAR: 2006
EXTT0=
EXTT1=
EXTT2=
EXTT3=
EXTT4=
EXTT5=
EXTT6=
EXTT7=
EXTT8=
EXTT9=
EXTT10=
PLAYORDER=
